<?xml version="1.0" standalone="no"?><!DOCTYPE svg PUBLIC "-//W3C//DTD SVG 1.1//EN" "http://www.w3.org/Graphics/SVG/1.1/DTD/svg11.dtd"><svg t="1638175489203" class="icon" viewBox="0 0 1024 1024" version="1.1" xmlns="http://www.w3.org/2000/svg" p-id="8695" xmlns:xlink="http://www.w3.org/1999/xlink" width="200" height="200"><defs><style type="text/css"></style></defs><path d="M149.333333 704c35.413333 0 64 29.013333 64 64s-29.013333 64-64 64S85.333333 802.986667 85.333333 768s28.586667-64 64-64zM896 725.333333a42.666667 42.666667 0 0 1 0 85.333334H341.333333a42.666667 42.666667 0 0 1 0-85.333334zM149.333333 448c35.413333 0 64 28.586667 64 64s-28.586667 64-64 64S85.333333 547.413333 85.333333 512s28.586667-64 64-64zM896 469.333333a42.666667 42.666667 0 0 1 0 85.333334H341.333333a42.666667 42.666667 0 0 1 0-85.333334zM149.333333 192C184.746667 192 213.333333 220.586667 213.333333 256s-28.586667 64-64 64S85.333333 291.413333 85.333333 256s28.586667-64 64-64zM896 213.333333a42.666667 42.666667 0 0 1 0 85.333334H341.333333a42.666667 42.666667 0 1 1 0-85.333334z" fill="#ffffff" p-id="8696"></path></svg>